<svg width="469" height="256" viewBox="0 0 469 256" fill="none" xmlns="http://www.w3.org/2000/svg">
<path d="M203.047 205.549H20.0879C17.7859 205.549 16.1379 207.756 16.7639 209.971L16.8269 210.193C19.7099 220.339 29.0569 227.285 39.6049 227.285H183.53C194.078 227.285 203.424 220.338 206.308 210.193L206.371 209.971C206.997 207.756 205.348 205.549 203.047 205.549Z" fill="black"/>
<path d="M41.4771 227.285C42.7061 234.515 49.0221 240.071 56.5881 240.071H166.548C174.114 240.071 180.43 234.515 181.659 227.285H41.4771Z" fill="black"/>
<path d="M252.415 121.578C247.737 101.788 229.024 88.245 207.943 89.374L206.204 89.467C206.067 94.6236 205.695 99.7712 205.09 104.894L208.831 104.693C222.107 103.979 233.894 112.512 236.839 124.975C240.524 140.566 228.891 155.676 212.336 156.783C203.886 157.34 195.554 159.067 187.578 161.914C182.628 171.408 176.734 180.378 169.985 188.689C185.165 178.03 198.235 173.105 213.443 172.088C239.79 170.328 258.263 146.325 252.415 121.578Z" fill="black"/>
<path d="M195.062 73.043H28.0719C21.9519 73.043 16.8739 78.288 16.8669 84.826V84.946C16.8669 117.423 26.0329 147.603 41.7379 172.723C44.5799 170.886 47.8499 169.837 51.3319 169.837C58.0909 169.837 64.0559 173.782 67.6269 179.799C71.1979 173.784 77.1579 169.837 83.9159 169.837C94.8479 169.837 103.71 180.149 103.71 192.87C103.71 197.556 102.504 201.913 100.439 205.55H150.909C154.067 204.616 156.941 202.906 159.269 200.577C188.183 171.688 206.266 130.58 206.266 84.947V84.827C206.26 78.287 201.182 73.043 195.062 73.043Z" fill="black"/>
<path d="M195.062 73.043H28.0719C21.9519 73.043 16.8739 78.288 16.8669 84.826V84.946C16.8669 88.957 17.0149 92.932 17.2889 96.868H205.844C206.119 92.932 206.266 88.958 206.266 84.946V84.826C206.26 78.287 201.182 73.043 195.062 73.043Z" fill="black"/>
<path d="M182.058 225.499C181.737 225.43 181.405 225.424 181.082 225.483C180.759 225.542 180.451 225.664 180.175 225.842C179.899 226.02 179.661 226.25 179.474 226.521C179.288 226.791 179.156 227.095 179.087 227.416C177.818 233.301 172.545 237.572 166.546 237.572H56.5869C50.6019 237.572 45.3299 233.311 44.0519 227.441C43.982 227.12 43.8497 226.816 43.6623 226.547C43.475 226.277 43.2364 226.047 42.9602 225.869C42.6839 225.692 42.3754 225.571 42.0523 225.512C41.7292 225.454 41.3977 225.46 41.0769 225.53C40.7561 225.6 40.4522 225.732 40.1825 225.92C39.9128 226.107 39.6827 226.345 39.5053 226.622C39.3278 226.898 39.2065 227.206 39.1483 227.53C39.09 227.853 39.096 228.184 39.1659 228.505C40.9399 236.656 48.2669 242.572 56.5859 242.572H166.545C174.882 242.572 182.212 236.641 183.973 228.47C184.043 228.149 184.048 227.818 183.99 227.495C183.931 227.172 183.809 226.863 183.632 226.587C183.454 226.311 183.223 226.073 182.953 225.886C182.683 225.7 182.379 225.568 182.058 225.499ZM239.273 124.399C236.048 110.754 223.183 101.418 208.698 102.196L205.869 102.347C205.541 102.365 205.22 102.446 204.924 102.588C204.628 102.73 204.362 102.928 204.143 103.173C203.923 103.417 203.754 103.702 203.645 104.011C203.536 104.321 203.488 104.649 203.506 104.977C203.523 105.305 203.605 105.626 203.747 105.922C203.889 106.218 204.087 106.484 204.331 106.703C204.576 106.923 204.861 107.092 205.17 107.201C205.48 107.31 205.808 107.358 206.136 107.34L208.966 107.189C221.049 106.522 231.738 114.261 234.406 125.549C235.947 132.068 234.519 138.938 230.489 144.396C226.211 150.189 219.534 153.795 212.169 154.287C203.735 154.835 195.415 156.526 187.436 159.313C186.809 159.53 186.295 159.988 186.006 160.585C185.717 161.181 185.676 161.869 185.894 162.495C186.111 163.121 186.569 163.636 187.166 163.925C187.762 164.214 188.449 164.254 189.076 164.037C196.633 161.397 204.514 159.796 212.503 159.276C221.337 158.685 229.36 154.344 234.512 147.365C239.417 140.723 241.153 132.353 239.273 124.399Z" fill="black"/>
<path d="M254.848 121.002C249.892 100.035 230.113 85.681 207.81 86.877L206.988 86.921C206.66 86.9385 206.339 87.0205 206.043 87.1621C205.746 87.3038 205.481 87.5024 205.262 87.7466C205.042 87.9908 204.873 88.2759 204.764 88.5855C204.655 88.8951 204.607 89.2232 204.625 89.551C204.642 89.8791 204.723 90.2007 204.864 90.4972C205.006 90.7938 205.204 91.0595 205.449 91.2791C205.693 91.4986 205.979 91.6678 206.288 91.7767C206.598 91.8857 206.927 91.9323 207.255 91.914L208.078 91.87C227.954 90.798 245.583 103.541 249.983 122.152C252.527 132.919 250.17 144.262 243.516 153.274C236.458 162.833 225.437 168.781 213.28 169.593C197.514 170.647 184.212 175.694 168.8 186.468C168.26 186.85 167.894 187.429 167.78 188.08C167.667 188.731 167.816 189.401 168.195 189.942C168.573 190.484 169.151 190.853 169.802 190.97C170.452 191.087 171.122 190.941 171.666 190.565C186.277 180.35 198.823 175.569 213.614 174.581C227.241 173.67 239.606 166.986 247.539 156.243C255.066 146.047 257.731 133.203 254.848 121.002Z" fill="black"/>
<path d="M195.062 70.543H28.0719C20.5229 70.543 14.3749 76.949 14.3669 84.826V84.947C14.3669 116.376 22.8769 146.829 38.9759 173.013C39.1465 173.296 39.3713 173.542 39.6374 173.737C39.9035 173.932 40.2056 174.073 40.5264 174.151C40.8471 174.229 41.1801 174.242 41.5062 174.191C41.8322 174.139 42.1448 174.024 42.426 173.851C42.7071 173.678 42.9513 173.451 43.1443 173.183C43.3373 172.916 43.4755 172.612 43.5507 172.291C43.6259 171.97 43.6367 171.636 43.5825 171.311C43.5283 170.985 43.4102 170.674 43.2349 170.394C27.6199 144.998 19.3659 115.451 19.3659 84.947V84.829C19.3709 79.709 23.2759 75.544 28.0709 75.544H195.061C199.856 75.544 203.761 79.709 203.766 84.827V84.948C203.766 127.932 186.903 169.433 157.502 198.809C155.467 200.841 152.958 202.334 150.201 203.153C149.572 203.346 149.044 203.78 148.732 204.36C148.421 204.94 148.351 205.619 148.537 206.251C148.724 206.882 149.152 207.415 149.728 207.732C150.305 208.05 150.984 208.128 151.617 207.948C155.173 206.892 158.41 204.967 161.035 202.346C191.368 172.039 208.765 129.249 208.765 84.948V84.825C208.76 76.949 202.612 70.543 195.062 70.543Z" fill="black"/>
<path d="M83.917 167.336C76.817 167.336 70.079 171.264 65.895 177.843C65.7157 178.12 65.5931 178.43 65.5341 178.754C65.4752 179.079 65.4811 179.412 65.5515 179.735C65.6219 180.057 65.7554 180.362 65.9444 180.633C66.1333 180.903 66.3739 181.134 66.6524 181.311C66.9308 181.488 67.2415 181.608 67.5666 181.664C67.8917 181.721 68.2248 181.712 68.5466 181.639C68.8684 181.566 69.1725 181.43 69.4416 181.239C69.7106 181.048 69.9391 180.806 70.114 180.526C73.425 175.32 78.456 172.335 83.918 172.335C93.454 172.335 101.212 181.546 101.212 192.868C101.212 196.682 100.32 200.408 98.632 203.642C98.3252 204.23 98.2646 204.915 98.4634 205.548C98.6622 206.181 99.1041 206.708 99.692 207.015C100.28 207.322 100.965 207.382 101.598 207.184C102.231 206.985 102.758 206.543 103.065 205.955C105.124 202.009 106.212 197.483 106.212 192.868C106.211 178.79 96.21 167.336 83.917 167.336Z" fill="black"/>
<path d="M51.3331 167.336C39.0401 167.336 29.0391 178.79 29.0391 192.869C29.0391 197.526 30.1451 202.086 32.2391 206.057C32.3919 206.348 32.6006 206.605 32.8531 206.815C33.1057 207.025 33.3971 207.183 33.7108 207.28C34.0245 207.377 34.3542 207.411 34.6812 207.381C35.0081 207.35 35.3258 207.255 35.6161 207.102C36.2024 206.793 36.6418 206.263 36.8378 205.63C37.0338 204.997 36.9702 204.311 36.6611 203.725C34.9451 200.47 34.0381 196.716 34.0381 192.869C34.0381 181.547 41.7961 172.336 51.3321 172.336C60.8681 172.336 68.6261 181.547 68.6261 192.869C68.6261 196.716 67.7191 200.47 66.0041 203.724C65.8441 204.015 65.7436 204.335 65.7086 204.665C65.6735 204.995 65.7046 205.329 65.7999 205.647C65.8953 205.965 66.053 206.261 66.264 206.517C66.4749 206.773 66.7348 206.985 67.0284 207.14C67.3221 207.295 67.6437 207.39 67.9744 207.419C68.3051 207.448 68.6383 207.411 68.9546 207.31C69.2709 207.21 69.5639 207.047 69.8165 206.831C70.0692 206.616 70.2764 206.352 70.4261 206.056C72.5191 202.085 73.6251 197.526 73.6251 192.869C73.6261 178.791 63.6251 167.336 51.3331 167.336Z" fill="black"/>
<path d="M53.163 190.121C44.831 181.171 52.825 172.248 53.169 171.872C53.6199 171.386 53.8592 170.741 53.8344 170.078C53.8095 169.416 53.5225 168.79 53.0365 168.339C52.5505 167.889 51.9053 167.649 51.2428 167.674C50.5803 167.699 49.9549 167.986 49.504 168.472C45.47 172.805 40.279 183.618 49.504 193.528C52.501 196.747 53.738 200.456 53.181 204.551C53.1318 204.879 53.1482 205.213 53.2292 205.534C53.3102 205.855 53.4543 206.157 53.653 206.422C53.8517 206.687 54.1011 206.91 54.3868 207.078C54.6724 207.246 54.9885 207.355 55.3167 207.4C55.645 207.444 55.9788 207.423 56.2989 207.338C56.6189 207.252 56.9187 207.104 57.181 206.901C57.4432 206.699 57.6625 206.446 57.8263 206.158C57.9901 205.87 58.095 205.553 58.135 205.224C58.892 199.652 57.173 194.429 53.163 190.121ZM85.747 190.121C77.421 181.177 85.397 172.261 85.753 171.873C86.1992 171.386 86.4346 170.743 86.4078 170.083C86.3811 169.423 86.0945 168.801 85.6104 168.351C85.1264 167.902 84.4843 167.663 83.8243 167.685C83.1644 167.708 82.5402 167.991 82.088 168.472C78.054 172.805 72.862 183.618 82.088 193.528C85.085 196.747 86.322 200.456 85.765 204.552C85.7158 204.88 85.7322 205.214 85.8132 205.535C85.8942 205.856 86.0383 206.158 86.237 206.423C86.4357 206.688 86.6851 206.911 86.9708 207.079C87.2564 207.247 87.5725 207.356 87.9007 207.401C88.229 207.445 88.5628 207.424 88.8829 207.339C89.2029 207.253 89.5027 207.105 89.765 206.902C90.0272 206.7 90.2466 206.447 90.4103 206.159C90.5741 205.871 90.679 205.554 90.719 205.225C91.477 199.653 89.758 194.43 85.747 190.121ZM204.958 94.3679H18.083C17.42 94.3679 16.7841 94.6313 16.3152 95.1002C15.8464 95.569 15.583 96.2049 15.583 96.8679C15.583 97.531 15.8464 98.1668 16.3152 98.6357C16.7841 99.1045 17.42 99.3679 18.083 99.3679H204.958C205.621 99.3679 206.257 99.1045 206.726 98.6357C207.195 98.1668 207.458 97.531 207.458 96.8679C207.458 96.2049 207.195 95.569 206.726 95.1002C206.257 94.6313 205.621 94.3679 204.958 94.3679Z" fill="black"/>
<path d="M299.04 154.17L297.72 160H273.63V88.83H271.65L272.75 83H279.46V154.17H299.04ZM302.923 160L309.193 88.83H307.763L308.863 83H322.393L329.213 160H324.153L322.723 144.49H309.413L307.983 160H302.923ZM309.853 138.66H322.283L317.773 88.83H314.363L309.853 138.66Z" fill="black"/>
<path d="M272.65 171.83L273.75 166H286.95C294.65 166 298.5 169.813 298.5 177.44V208.35C298.5 215.17 294.65 218.58 286.95 218.58H280.46V243H274.63V171.83H272.65ZM286.95 171.83H280.46V212.75H286.95C290.763 212.75 292.67 211.283 292.67 208.35V177.44C292.67 173.7 290.763 171.83 286.95 171.83ZM329.688 237.17L328.368 243H304.278V171.83H302.298L303.398 166H310.108V237.17H329.688ZM333.571 243L339.841 171.83H338.411L339.511 166H353.041L359.861 243H354.801L353.371 227.49H340.061L338.631 243H333.571ZM340.501 221.66H352.931L348.421 171.83H345.011L340.501 221.66ZM389.484 237.17V243H363.744V238.38C363.744 237.5 363.927 236.473 364.294 235.3L383.104 173.7C383.324 172.893 383.324 172.38 383.104 172.16C382.957 171.94 382.48 171.83 381.674 171.83H363.744V166H389.484V170.62C389.484 171.5 389.3 172.527 388.934 173.7L370.124 235.3C369.904 236.033 369.904 236.547 370.124 236.84C370.344 237.06 370.82 237.17 371.554 237.17H389.484ZM392.223 243L398.493 171.83H397.063L398.163 166H411.693L418.513 243H413.453L412.023 227.49H398.713L397.283 243H392.223ZM399.153 221.66H411.583L407.073 171.83H403.663L399.153 221.66Z" fill="black"/>
</svg>
